<?xml version="1.0" standalone="no"?>
<!DOCTYPE svg PUBLIC "-//W3C//DTD SVG 1.1//EN" "http://www.w3.org/Graphics/SVG/1.1/DTD/svg11.dtd">
<svg version="1.1" width="1200" height="326" onload="init(evt)" viewBox="0 0 1200 326" xmlns="http://www.w3.org/2000/svg" xmlns:xlink="http://www.w3.org/1999/xlink">
<!-- Flame graph stack visualization. See https://github.com/brendangregg/FlameGraph for latest version, and http://www.brendangregg.com/flamegraphs.html for examples. -->
<!-- NOTES:  -->
<defs>
	<linearGradient id="background" y1="0" y2="1" x1="0" x2="0" >
		<stop stop-color="#eeeeee" offset="5%" />
		<stop stop-color="#eeeeb0" offset="95%" />
	</linearGradient>
</defs>
<style type="text/css">
	text { font-family:Verdana; font-size:12px; fill:rgb(0,0,0); }
	#search, #ignorecase { opacity:0.1; cursor:pointer; }
	#search:hover, #search.show, #ignorecase:hover, #ignorecase.show { opacity:1; }
	#subtitle { text-anchor:middle; font-color:rgb(160,160,160); }
	#title { text-anchor:middle; font-size:17px}
	#unzoom { cursor:pointer; }
	#frames > *:hover { stroke:black; stroke-width:0.5; cursor:pointer; }
	.hide { display:none; }
	.parent { opacity:0.5; }
</style>
<script type="text/ecmascript">
<![CDATA[
	"use strict";
	var details, searchbtn, unzoombtn, matchedtxt, svg, searching, currentSearchTerm, ignorecase, ignorecaseBtn;
	function init(evt) {
		details = document.getElementById("details").firstChild;
		searchbtn = document.getElementById("search");
		ignorecaseBtn = document.getElementById("ignorecase");
		unzoombtn = document.getElementById("unzoom");
		matchedtxt = document.getElementById("matched");
		svg = document.getElementsByTagName("svg")[0];
		searching = 0;
		currentSearchTerm = null;

		// use GET parameters to restore a flamegraphs state.
		var params = get_params();
		if (params.x && params.y)
			zoom(find_group(document.querySelector('[x="' + params.x + '"][y="' + params.y + '"]')));
                if (params.s) search(params.s);
	}

	// event listeners
	window.addEventListener("click", function(e) {
		var target = find_group(e.target);
		if (target) {
			if (target.nodeName == "a") {
				if (e.ctrlKey === false) return;
				e.preventDefault();
			}
			if (target.classList.contains("parent")) unzoom(true);
			zoom(target);
			if (!document.querySelector('.parent')) {
				// we have basically done a clearzoom so clear the url
				var params = get_params();
				if (params.x) delete params.x;
				if (params.y) delete params.y;
				history.replaceState(null, null, parse_params(params));
				unzoombtn.classList.add("hide");
				return;
			}

			// set parameters for zoom state
			var el = target.querySelector("rect");
			if (el && el.attributes && el.attributes.y && el.attributes._orig_x) {
				var params = get_params()
				params.x = el.attributes._orig_x.value;
				params.y = el.attributes.y.value;
				history.replaceState(null, null, parse_params(params));
			}
		}
		else if (e.target.id == "unzoom") clearzoom();
		else if (e.target.id == "search") search_prompt();
		else if (e.target.id == "ignorecase") toggle_ignorecase();
	}, false)

	// mouse-over for info
	// show
	window.addEventListener("mouseover", function(e) {
		var target = find_group(e.target);
		if (target) details.nodeValue = "Function: " + g_to_text(target);
	}, false)

	// clear
	window.addEventListener("mouseout", function(e) {
		var target = find_group(e.target);
		if (target) details.nodeValue = ' ';
	}, false)

	// ctrl-F for search
	// ctrl-I to toggle case-sensitive search
	window.addEventListener("keydown",function (e) {
		if (e.keyCode === 114 || (e.ctrlKey && e.keyCode === 70)) {
			e.preventDefault();
			search_prompt();
		}
		else if (e.ctrlKey && e.keyCode === 73) {
			e.preventDefault();
			toggle_ignorecase();
		}
	}, false)

	// functions
	function get_params() {
		var params = {};
		var paramsarr = window.location.search.substr(1).split('&');
		for (var i = 0; i < paramsarr.length; ++i) {
			var tmp = paramsarr[i].split("=");
			if (!tmp[0] || !tmp[1]) continue;
			params[tmp[0]]  = decodeURIComponent(tmp[1]);
		}
		return params;
	}
	function parse_params(params) {
		var uri = "?";
		for (var key in params) {
			uri += key + '=' + encodeURIComponent(params[key]) + '&';
		}
		if (uri.slice(-1) == "&")
			uri = uri.substring(0, uri.length - 1);
		if (uri == '?')
			uri = window.location.href.split('?')[0];
		return uri;
	}
	function find_child(node, selector) {
		var children = node.querySelectorAll(selector);
		if (children.length) return children[0];
	}
	function find_group(node) {
		var parent = node.parentElement;
		if (!parent) return;
		if (parent.id == "frames") return node;
		return find_group(parent);
	}
	function orig_save(e, attr, val) {
		if (e.attributes["_orig_" + attr] != undefined) return;
		if (e.attributes[attr] == undefined) return;
		if (val == undefined) val = e.attributes[attr].value;
		e.setAttribute("_orig_" + attr, val);
	}
	function orig_load(e, attr) {
		if (e.attributes["_orig_"+attr] == undefined) return;
		e.attributes[attr].value = e.attributes["_orig_" + attr].value;
		e.removeAttribute("_orig_"+attr);
	}
	function g_to_text(e) {
		var text = find_child(e, "title").firstChild.nodeValue;
		return (text)
	}
	function g_to_func(e) {
		var func = g_to_text(e);
		// if there's any manipulation we want to do to the function
		// name before it's searched, do it here before returning.
		return (func);
	}
	function update_text(e) {
		var r = find_child(e, "rect");
		var t = find_child(e, "text");
		var w = parseFloat(r.attributes.width.value) -3;
		var txt = find_child(e, "title").textContent.replace(/\([^(]*\)$/,"");
		t.attributes.x.value = parseFloat(r.attributes.x.value) + 3;

		// Smaller than this size won't fit anything
		if (w < 2 * 12 * 0.59) {
			t.textContent = "";
			return;
		}

		t.textContent = txt;
		var sl = t.getSubStringLength(0, txt.length);
		// check if only whitespace or if we can fit the entire string into width w
		if (/^ *$/.test(txt) || sl < w)
			return;

		// this isn't perfect, but gives a good starting point
		// and avoids calling getSubStringLength too often
		var start = Math.floor((w/sl) * txt.length);
		for (var x = start; x > 0; x = x-2) {
			if (t.getSubStringLength(0, x + 2) <= w) {
				t.textContent = txt.substring(0, x) + "..";
				return;
			}
		}
		t.textContent = "";
	}

	// zoom
	function zoom_reset(e) {
		if (e.attributes != undefined) {
			orig_load(e, "x");
			orig_load(e, "width");
		}
		if (e.childNodes == undefined) return;
		for (var i = 0, c = e.childNodes; i < c.length; i++) {
			zoom_reset(c[i]);
		}
	}
	function zoom_child(e, x, ratio) {
		if (e.attributes != undefined) {
			if (e.attributes.x != undefined) {
				orig_save(e, "x");
				e.attributes.x.value = (parseFloat(e.attributes.x.value) - x - 10) * ratio + 10;
				if (e.tagName == "text")
					e.attributes.x.value = find_child(e.parentNode, "rect[x]").attributes.x.value + 3;
			}
			if (e.attributes.width != undefined) {
				orig_save(e, "width");
				e.attributes.width.value = parseFloat(e.attributes.width.value) * ratio;
			}
		}

		if (e.childNodes == undefined) return;
		for (var i = 0, c = e.childNodes; i < c.length; i++) {
			zoom_child(c[i], x - 10, ratio);
		}
	}
	function zoom_parent(e) {
		if (e.attributes) {
			if (e.attributes.x != undefined) {
				orig_save(e, "x");
				e.attributes.x.value = 10;
			}
			if (e.attributes.width != undefined) {
				orig_save(e, "width");
				e.attributes.width.value = parseInt(svg.width.baseVal.value) - (10 * 2);
			}
		}
		if (e.childNodes == undefined) return;
		for (var i = 0, c = e.childNodes; i < c.length; i++) {
			zoom_parent(c[i]);
		}
	}
	function zoom(node) {
		var attr = find_child(node, "rect").attributes;
		var width = parseFloat(attr.width.value);
		var xmin = parseFloat(attr.x.value);
		var xmax = parseFloat(xmin + width);
		var ymin = parseFloat(attr.y.value);
		var ratio = (svg.width.baseVal.value - 2 * 10) / width;

		// XXX: Workaround for JavaScript float issues (fix me)
		var fudge = 0.0001;

		unzoombtn.classList.remove("hide");

		var el = document.getElementById("frames").children;
		for (var i = 0; i < el.length; i++) {
			var e = el[i];
			var a = find_child(e, "rect").attributes;
			var ex = parseFloat(a.x.value);
			var ew = parseFloat(a.width.value);
			var upstack;
			// Is it an ancestor
			if (0 == 0) {
				upstack = parseFloat(a.y.value) > ymin;
			} else {
				upstack = parseFloat(a.y.value) < ymin;
			}
			if (upstack) {
				// Direct ancestor
				if (ex <= xmin && (ex+ew+fudge) >= xmax) {
					e.classList.add("parent");
					zoom_parent(e);
					update_text(e);
				}
				// not in current path
				else
					e.classList.add("hide");
			}
			// Children maybe
			else {
				// no common path
				if (ex < xmin || ex + fudge >= xmax) {
					e.classList.add("hide");
				}
				else {
					zoom_child(e, xmin, ratio);
					update_text(e);
				}
			}
		}
		search();
	}
	function unzoom(dont_update_text) {
		unzoombtn.classList.add("hide");
		var el = document.getElementById("frames").children;
		for(var i = 0; i < el.length; i++) {
			el[i].classList.remove("parent");
			el[i].classList.remove("hide");
			zoom_reset(el[i]);
			if(!dont_update_text) update_text(el[i]);
		}
		search();
	}
	function clearzoom() {
		unzoom();

		// remove zoom state
		var params = get_params();
		if (params.x) delete params.x;
		if (params.y) delete params.y;
		history.replaceState(null, null, parse_params(params));
	}

	// search
	function toggle_ignorecase() {
		ignorecase = !ignorecase;
		if (ignorecase) {
			ignorecaseBtn.classList.add("show");
		} else {
			ignorecaseBtn.classList.remove("show");
		}
		reset_search();
		search();
	}
	function reset_search() {
		var el = document.querySelectorAll("#frames rect");
		for (var i = 0; i < el.length; i++) {
			orig_load(el[i], "fill")
		}
		var params = get_params();
		delete params.s;
		history.replaceState(null, null, parse_params(params));
	}
	function search_prompt() {
		if (!searching) {
			var term = prompt("Enter a search term (regexp " +
			    "allowed, eg: ^ext4_)"
			    + (ignorecase ? ", ignoring case" : "")
			    + "\nPress Ctrl-i to toggle case sensitivity", "");
			if (term != null) search(term);
		} else {
			reset_search();
			searching = 0;
			currentSearchTerm = null;
			searchbtn.classList.remove("show");
			searchbtn.firstChild.nodeValue = "Search"
			matchedtxt.classList.add("hide");
			matchedtxt.firstChild.nodeValue = ""
		}
	}
	function search(term) {
		if (term) currentSearchTerm = term;

		var re = new RegExp(currentSearchTerm, ignorecase ? 'i' : '');
		var el = document.getElementById("frames").children;
		var matches = new Object();
		var maxwidth = 0;
		for (var i = 0; i < el.length; i++) {
			var e = el[i];
			var func = g_to_func(e);
			var rect = find_child(e, "rect");
			if (func == null || rect == null)
				continue;

			// Save max width. Only works as we have a root frame
			var w = parseFloat(rect.attributes.width.value);
			if (w > maxwidth)
				maxwidth = w;

			if (func.match(re)) {
				// highlight
				var x = parseFloat(rect.attributes.x.value);
				orig_save(rect, "fill");
				rect.attributes.fill.value = "rgb(230,0,230)";

				// remember matches
				if (matches[x] == undefined) {
					matches[x] = w;
				} else {
					if (w > matches[x]) {
						// overwrite with parent
						matches[x] = w;
					}
				}
				searching = 1;
			}
		}
		if (!searching)
			return;
		var params = get_params();
		params.s = currentSearchTerm;
		history.replaceState(null, null, parse_params(params));

		searchbtn.classList.add("show");
		searchbtn.firstChild.nodeValue = "Reset Search";

		// calculate percent matched, excluding vertical overlap
		var count = 0;
		var lastx = -1;
		var lastw = 0;
		var keys = Array();
		for (k in matches) {
			if (matches.hasOwnProperty(k))
				keys.push(k);
		}
		// sort the matched frames by their x location
		// ascending, then width descending
		keys.sort(function(a, b){
			return a - b;
		});
		// Step through frames saving only the biggest bottom-up frames
		// thanks to the sort order. This relies on the tree property
		// where children are always smaller than their parents.
		var fudge = 0.0001;	// JavaScript floating point
		for (var k in keys) {
			var x = parseFloat(keys[k]);
			var w = matches[keys[k]];
			if (x >= lastx + lastw - fudge) {
				count += w;
				lastx = x;
				lastw = w;
			}
		}
		// display matched percent
		matchedtxt.classList.remove("hide");
		var pct = 100 * count / maxwidth;
		if (pct != 100) pct = pct.toFixed(1)
		matchedtxt.firstChild.nodeValue = "Matched: " + pct + "%";
	}
]]>
</script>
<rect x="0.0" y="0" width="1200.0" height="326.0" fill="url(#background)"  />
<text id="title" x="600.00" y="24" >Flame Graph</text>
<text id="details" x="10.00" y="309" > </text>
<text id="unzoom" x="10.00" y="24" class="hide">Reset Zoom</text>
<text id="search" x="1090.00" y="24" >Search</text>
<text id="ignorecase" x="1174.00" y="24" >ic</text>
<text id="matched" x="1090.00" y="309" > </text>
<g id="frames">
<g >
<title>runtime.sysUnusedOS (12 samples, 0.37%)</title><rect x="10.0" y="149" width="4.3" height="15.0" fill="rgb(208,16,3)" rx="2" ry="2" />
<text  x="13.00" y="159.5" ></text>
</g>
<g >
<title>runtime.(*scavengerState).init.func1 (1 samples, 0.03%)</title><rect x="1186.4" y="149" width="0.4" height="15.0" fill="rgb(240,161,38)" rx="2" ry="2" />
<text  x="1189.40" y="159.5" ></text>
</g>
<g >
<title>runtime.madvise (12 samples, 0.37%)</title><rect x="10.0" y="133" width="4.3" height="15.0" fill="rgb(216,54,12)" rx="2" ry="2" />
<text  x="13.00" y="143.5" ></text>
</g>
<g >
<title>runtime.findRunnable (9 samples, 0.27%)</title><rect x="1186.0" y="213" width="3.3" height="15.0" fill="rgb(219,64,15)" rx="2" ry="2" />
<text  x="1189.05" y="223.5" ></text>
</g>
<g >
<title>syscall.RawSyscall6 (52 samples, 1.58%)</title><rect x="821.5" y="165" width="18.7" height="15.0" fill="rgb(241,167,40)" rx="2" ry="2" />
<text  x="824.47" y="175.5" ></text>
</g>
<g >
<title>runtime.markroot.func1 (4 samples, 0.12%)</title><rect x="74.0" y="181" width="1.4" height="15.0" fill="rgb(222,80,19)" rx="2" ry="2" />
<text  x="77.00" y="191.5" ></text>
</g>
<g >
<title>runtime.gcDrainMarkWorkerDedicated (166 samples, 5.06%)</title><rect x="14.3" y="229" width="59.7" height="15.0" fill="rgb(206,5,1)" rx="2" ry="2" />
<text  x="17.31" y="239.5" >runtim..</text>
</g>
<g >
<title>runtime.markroot (162 samples, 4.94%)</title><rect x="14.7" y="197" width="58.2" height="15.0" fill="rgb(251,212,50)" rx="2" ry="2" />
<text  x="17.67" y="207.5" >runtim..</text>
</g>
<g >
<title>runtime.memclrNoHeapPointers (114 samples, 3.47%)</title><rect x="948.0" y="181" width="41.0" height="15.0" fill="rgb(252,219,52)" rx="2" ry="2" />
<text  x="951.03" y="191.5" >run..</text>
</g>
<g >
<title>runtime.bgscavenge (12 samples, 0.37%)</title><rect x="10.0" y="261" width="4.3" height="15.0" fill="rgb(228,109,26)" rx="2" ry="2" />
<text  x="13.00" y="271.5" ></text>
</g>
<g >
<title>runtime.decoderune (16 samples, 0.49%)</title><rect x="395.4" y="229" width="5.8" height="15.0" fill="rgb(220,71,17)" rx="2" ry="2" />
<text  x="398.42" y="239.5" ></text>
</g>
<g >
<title>runtime.markrootBlock (1 samples, 0.03%)</title><rect x="72.2" y="181" width="0.4" height="15.0" fill="rgb(229,111,26)" rx="2" ry="2" />
<text  x="75.20" y="191.5" ></text>
</g>
<g >
<title>runtime.futexwakeup (1 samples, 0.03%)</title><rect x="1186.4" y="53" width="0.4" height="15.0" fill="rgb(219,66,15)" rx="2" ry="2" />
<text  x="1189.40" y="63.5" ></text>
</g>
<g >
<title>runtime.gcDrain (166 samples, 5.06%)</title><rect x="14.3" y="213" width="59.7" height="15.0" fill="rgb(233,130,31)" rx="2" ry="2" />
<text  x="17.31" y="223.5" >runtim..</text>
</g>
<g >
<title>runtime.suspendG (4 samples, 0.12%)</title><rect x="74.0" y="165" width="1.4" height="15.0" fill="rgb(246,191,45)" rx="2" ry="2" />
<text  x="77.00" y="175.5" ></text>
</g>
<g >
<title>runtime.runtimer (1 samples, 0.03%)</title><rect x="1186.4" y="181" width="0.4" height="15.0" fill="rgb(205,4,0)" rx="2" ry="2" />
<text  x="1189.40" y="191.5" ></text>
</g>
<g >
<title>runtime.asyncPreempt (1 samples, 0.03%)</title><rect x="840.2" y="229" width="0.3" height="15.0" fill="rgb(243,174,41)" rx="2" ry="2" />
<text  x="843.17" y="239.5" ></text>
</g>
<g >
<title>runtime.futex (1 samples, 0.03%)</title><rect x="1189.3" y="133" width="0.3" height="15.0" fill="rgb(237,150,35)" rx="2" ry="2" />
<text  x="1192.28" y="143.5" ></text>
</g>
<g >
<title>runtime.procyield (142 samples, 4.33%)</title><rect x="21.1" y="149" width="51.1" height="15.0" fill="rgb(206,8,1)" rx="2" ry="2" />
<text  x="24.15" y="159.5" >runti..</text>
</g>
<g >
<title>internal/bytealg.IndexByteString (34 samples, 1.04%)</title><rect x="1173.8" y="197" width="12.2" height="15.0" fill="rgb(252,220,52)" rx="2" ry="2" />
<text  x="1176.82" y="207.5" ></text>
</g>
<g >
<title>runtime.futex (3 samples, 0.09%)</title><rect x="1187.1" y="149" width="1.1" height="15.0" fill="rgb(237,150,35)" rx="2" ry="2" />
<text  x="1190.12" y="159.5" ></text>
</g>
<g >
<title>main.Hash (488 samples, 14.87%)</title><rect x="225.7" y="245" width="175.5" height="15.0" fill="rgb(240,162,38)" rx="2" ry="2" />
<text  x="228.72" y="255.5" >main.Hash</text>
</g>
<g >
<title>runtime.gopreempt_m (1 samples, 0.03%)</title><rect x="1189.3" y="245" width="0.3" height="15.0" fill="rgb(237,148,35)" rx="2" ry="2" />
<text  x="1192.28" y="255.5" ></text>
</g>
<g >
<title>runtime.procyield (4 samples, 0.12%)</title><rect x="74.0" y="149" width="1.4" height="15.0" fill="rgb(206,8,1)" rx="2" ry="2" />
<text  x="77.00" y="159.5" ></text>
</g>
<g >
<title>syscall.Syscall (52 samples, 1.58%)</title><rect x="821.5" y="181" width="18.7" height="15.0" fill="rgb(215,47,11)" rx="2" ry="2" />
<text  x="824.47" y="191.5" ></text>
</g>
<g >
<title>os.(*File).read (52 samples, 1.58%)</title><rect x="821.5" y="229" width="18.7" height="15.0" fill="rgb(222,81,19)" rx="2" ry="2" />
<text  x="824.47" y="239.5" ></text>
</g>
<g >
<title>runtime.memclrNoHeapPointers (5 samples, 0.15%)</title><rect x="759.6" y="197" width="1.8" height="15.0" fill="rgb(252,219,52)" rx="2" ry="2" />
<text  x="762.63" y="207.5" ></text>
</g>
<g >
<title>runtime.startm (1 samples, 0.03%)</title><rect x="1186.4" y="85" width="0.4" height="15.0" fill="rgb(220,71,17)" rx="2" ry="2" />
<text  x="1189.40" y="95.5" ></text>
</g>
<g >
<title>runtime.gcDrain (4 samples, 0.12%)</title><rect x="74.0" y="213" width="1.4" height="15.0" fill="rgb(233,130,31)" rx="2" ry="2" />
<text  x="77.00" y="223.5" ></text>
</g>
<g >
<title>runtime.mcall (9 samples, 0.27%)</title><rect x="1186.0" y="261" width="3.3" height="15.0" fill="rgb(213,40,9)" rx="2" ry="2" />
<text  x="1189.05" y="271.5" ></text>
</g>
<g >
<title>runtime/internal/syscall.Syscall6 (52 samples, 1.58%)</title><rect x="821.5" y="149" width="18.7" height="15.0" fill="rgb(210,24,5)" rx="2" ry="2" />
<text  x="824.47" y="159.5" ></text>
</g>
<g >
<title>runtime.osyield (5 samples, 0.15%)</title><rect x="19.3" y="149" width="1.8" height="15.0" fill="rgb(213,38,9)" rx="2" ry="2" />
<text  x="22.35" y="159.5" ></text>
</g>
<g >
<title>runtime.signalM (1 samples, 0.03%)</title><rect x="17.2" y="149" width="0.4" height="15.0" fill="rgb(210,25,6)" rx="2" ry="2" />
<text  x="20.19" y="159.5" ></text>
</g>
<g >
<title>strings.IndexByte (396 samples, 12.07%)</title><rect x="1043.7" y="213" width="142.3" height="15.0" fill="rgb(225,92,22)" rx="2" ry="2" />
<text  x="1046.67" y="223.5" >strings.IndexByte</text>
</g>
<g >
<title>runtime.systemstack (12 samples, 0.37%)</title><rect x="10.0" y="197" width="4.3" height="15.0" fill="rgb(206,6,1)" rx="2" ry="2" />
<text  x="13.00" y="207.5" ></text>
</g>
<g >
<title>runtime.growslice (14 samples, 0.43%)</title><rect x="759.6" y="213" width="5.1" height="15.0" fill="rgb(230,119,28)" rx="2" ry="2" />
<text  x="762.63" y="223.5" ></text>
</g>
<g >
<title>runtime.mPark (4 samples, 0.12%)</title><rect x="1186.8" y="197" width="1.4" height="15.0" fill="rgb(254,226,54)" rx="2" ry="2" />
<text  x="1189.76" y="207.5" ></text>
</g>
<g >
<title>runtime.notewakeup (1 samples, 0.03%)</title><rect x="1189.3" y="165" width="0.3" height="15.0" fill="rgb(231,122,29)" rx="2" ry="2" />
<text  x="1192.28" y="175.5" ></text>
</g>
<g >
<title>all (3,282 samples, 100%)</title><rect x="10.0" y="277" width="1180.0" height="15.0" fill="rgb(213,39,9)" rx="2" ry="2" />
<text  x="13.00" y="287.5" ></text>
</g>
<g >
<title>runtime.makeslice (114 samples, 3.47%)</title><rect x="948.0" y="213" width="41.0" height="15.0" fill="rgb(244,180,43)" rx="2" ry="2" />
<text  x="951.03" y="223.5" >run..</text>
</g>
<g >
<title>runtime.mallocgc (114 samples, 3.47%)</title><rect x="948.0" y="197" width="41.0" height="15.0" fill="rgb(241,169,40)" rx="2" ry="2" />
<text  x="951.03" y="207.5" >run..</text>
</g>
<g >
<title>runtime.findRunnable (1 samples, 0.03%)</title><rect x="1189.3" y="197" width="0.3" height="15.0" fill="rgb(219,64,15)" rx="2" ry="2" />
<text  x="1192.28" y="207.5" ></text>
</g>
<g >
<title>runtime.notesleep (4 samples, 0.12%)</title><rect x="1186.8" y="181" width="1.4" height="15.0" fill="rgb(230,119,28)" rx="2" ry="2" />
<text  x="1189.76" y="191.5" ></text>
</g>
<g >
<title>runtime.findObject (1 samples, 0.03%)</title><rect x="72.2" y="149" width="0.4" height="15.0" fill="rgb(216,51,12)" rx="2" ry="2" />
<text  x="75.20" y="159.5" ></text>
</g>
<g >
<title>runtime.scanblock (1 samples, 0.03%)</title><rect x="72.2" y="165" width="0.4" height="15.0" fill="rgb(231,120,28)" rx="2" ry="2" />
<text  x="75.20" y="175.5" ></text>
</g>
<g >
<title>runtime.sysUnused (12 samples, 0.37%)</title><rect x="10.0" y="165" width="4.3" height="15.0" fill="rgb(205,0,0)" rx="2" ry="2" />
<text  x="13.00" y="175.5" ></text>
</g>
<g >
<title>runtime.markroot (4 samples, 0.12%)</title><rect x="74.0" y="197" width="1.4" height="15.0" fill="rgb(251,212,50)" rx="2" ry="2" />
<text  x="77.00" y="207.5" ></text>
</g>
<g >
<title>runtime.preemptM (1 samples, 0.03%)</title><rect x="17.2" y="165" width="0.4" height="15.0" fill="rgb(240,161,38)" rx="2" ry="2" />
<text  x="20.19" y="175.5" ></text>
</g>
<g >
<title>runtime.checkTimers (1 samples, 0.03%)</title><rect x="1186.4" y="197" width="0.4" height="15.0" fill="rgb(228,105,25)" rx="2" ry="2" />
<text  x="1189.40" y="207.5" ></text>
</g>
<g >
<title>runtime.typePointers.next (1 samples, 0.03%)</title><rect x="73.3" y="181" width="0.3" height="15.0" fill="rgb(233,132,31)" rx="2" ry="2" />
<text  x="76.28" y="191.5" ></text>
</g>
<g >
<title>countbody (74 samples, 2.25%)</title><rect x="989.0" y="197" width="26.6" height="15.0" fill="rgb(213,38,9)" rx="2" ry="2" />
<text  x="992.02" y="207.5" >c..</text>
</g>
<g >
<title>runtime.nanotime1 (1 samples, 0.03%)</title><rect x="1189.6" y="261" width="0.4" height="15.0" fill="rgb(213,40,9)" rx="2" ry="2" />
<text  x="1192.64" y="271.5" ></text>
</g>
<g >
<title>strings.genSplit (825 samples, 25.14%)</title><rect x="889.4" y="229" width="296.6" height="15.0" fill="rgb(227,102,24)" rx="2" ry="2" />
<text  x="892.43" y="239.5" >strings.genSplit</text>
</g>
<g >
<title>runtime.schedule (1 samples, 0.03%)</title><rect x="1189.3" y="213" width="0.3" height="15.0" fill="rgb(220,72,17)" rx="2" ry="2" />
<text  x="1192.28" y="223.5" ></text>
</g>
<g >
<title>main.GetSplit (78 samples, 2.38%)</title><rect x="197.7" y="245" width="28.0" height="15.0" fill="rgb(251,213,50)" rx="2" ry="2" />
<text  x="200.68" y="255.5" >m..</text>
</g>
<g >
<title>runtime.goschedImpl (1 samples, 0.03%)</title><rect x="1189.3" y="229" width="0.3" height="15.0" fill="rgb(247,194,46)" rx="2" ry="2" />
<text  x="1192.28" y="239.5" ></text>
</g>
<g >
<title>runtime.main (3,089 samples, 94.12%)</title><rect x="75.4" y="261" width="1110.6" height="15.0" fill="rgb(209,21,5)" rx="2" ry="2" />
<text  x="78.44" y="271.5" >runtime.main</text>
</g>
<g >
<title>runtime.runSafePointFn (1 samples, 0.03%)</title><rect x="1189.3" y="181" width="0.3" height="15.0" fill="rgb(217,57,13)" rx="2" ry="2" />
<text  x="1192.28" y="191.5" ></text>
</g>
<g >
<title>runtime.typePointers.nextFast (1 samples, 0.03%)</title><rect x="73.6" y="197" width="0.4" height="15.0" fill="rgb(212,36,8)" rx="2" ry="2" />
<text  x="76.64" y="207.5" ></text>
</g>
<g >
<title>main.main (1,358 samples, 41.38%)</title><rect x="401.2" y="245" width="488.2" height="15.0" fill="rgb(227,101,24)" rx="2" ry="2" />
<text  x="404.18" y="255.5" >main.main</text>
</g>
<g >
<title>main.(*HashMap).Get (340 samples, 10.36%)</title><rect x="75.4" y="245" width="122.3" height="15.0" fill="rgb(240,163,39)" rx="2" ry="2" />
<text  x="78.44" y="255.5" >main.(*HashMap)..</text>
</g>
<g >
<title>runtime.notewakeup (1 samples, 0.03%)</title><rect x="1186.4" y="69" width="0.4" height="15.0" fill="rgb(231,122,29)" rx="2" ry="2" />
<text  x="1189.40" y="79.5" ></text>
</g>
<g >
<title>runtime.nanotime (7 samples, 0.21%)</title><rect x="14.7" y="165" width="2.5" height="15.0" fill="rgb(230,116,27)" rx="2" ry="2" />
<text  x="17.67" y="175.5" ></text>
</g>
<g >
<title>strings.Split (825 samples, 25.14%)</title><rect x="889.4" y="245" width="296.6" height="15.0" fill="rgb(205,2,0)" rx="2" ry="2" />
<text  x="892.43" y="255.5" >strings.Split</text>
</g>
<g >
<title>runtime.morestack (1 samples, 0.03%)</title><rect x="1189.3" y="261" width="0.3" height="15.0" fill="rgb(219,67,16)" rx="2" ry="2" />
<text  x="1192.28" y="271.5" ></text>
</g>
<g >
<title>runtime.schedule (9 samples, 0.27%)</title><rect x="1186.0" y="229" width="3.3" height="15.0" fill="rgb(220,72,17)" rx="2" ry="2" />
<text  x="1189.05" y="239.5" ></text>
</g>
<g >
<title>runtime.injectglist.func1 (1 samples, 0.03%)</title><rect x="1186.4" y="101" width="0.4" height="15.0" fill="rgb(252,217,52)" rx="2" ry="2" />
<text  x="1189.40" y="111.5" ></text>
</g>
<g >
<title>main.processChunk (172 samples, 5.24%)</title><rect x="759.6" y="229" width="61.9" height="15.0" fill="rgb(229,114,27)" rx="2" ry="2" />
<text  x="762.63" y="239.5" >main.p..</text>
</g>
<g >
<title>runtime/internal/syscall.EpollWait (2 samples, 0.06%)</title><rect x="1188.6" y="181" width="0.7" height="15.0" fill="rgb(233,130,31)" rx="2" ry="2" />
<text  x="1191.56" y="191.5" ></text>
</g>
<g >
<title>runtime.(*scavengerState).wake (1 samples, 0.03%)</title><rect x="1186.4" y="133" width="0.4" height="15.0" fill="rgb(246,189,45)" rx="2" ry="2" />
<text  x="1189.40" y="143.5" ></text>
</g>
<g >
<title>syscall.Read (52 samples, 1.58%)</title><rect x="821.5" y="213" width="18.7" height="15.0" fill="rgb(232,127,30)" rx="2" ry="2" />
<text  x="824.47" y="223.5" ></text>
</g>
<g >
<title>runtime.(*scavengerState).run (12 samples, 0.37%)</title><rect x="10.0" y="245" width="4.3" height="15.0" fill="rgb(232,125,30)" rx="2" ry="2" />
<text  x="13.00" y="255.5" ></text>
</g>
<g >
<title>runtime.(*pageAlloc).scavenge (12 samples, 0.37%)</title><rect x="10.0" y="213" width="4.3" height="15.0" fill="rgb(245,187,44)" rx="2" ry="2" />
<text  x="13.00" y="223.5" ></text>
</g>
<g >
<title>runtime.(*pageAlloc).scavenge.func1 (12 samples, 0.37%)</title><rect x="10.0" y="181" width="4.3" height="15.0" fill="rgb(217,56,13)" rx="2" ry="2" />
<text  x="13.00" y="191.5" ></text>
</g>
<g >
<title>runtime.futexwakeup (1 samples, 0.03%)</title><rect x="1189.3" y="149" width="0.3" height="15.0" fill="rgb(219,66,15)" rx="2" ry="2" />
<text  x="1192.28" y="159.5" ></text>
</g>
<g >
<title>runtime.markroot.func1 (160 samples, 4.88%)</title><rect x="14.7" y="181" width="57.5" height="15.0" fill="rgb(222,80,19)" rx="2" ry="2" />
<text  x="17.67" y="191.5" >runtim..</text>
</g>
<g >
<title>runtime.runOneTimer (1 samples, 0.03%)</title><rect x="1186.4" y="165" width="0.4" height="15.0" fill="rgb(239,157,37)" rx="2" ry="2" />
<text  x="1189.40" y="175.5" ></text>
</g>
<g >
<title>runtime.netpoll (3 samples, 0.09%)</title><rect x="1188.2" y="197" width="1.1" height="15.0" fill="rgb(231,119,28)" rx="2" ry="2" />
<text  x="1191.20" y="207.5" ></text>
</g>
<g >
<title>indexbytebody (360 samples, 10.97%)</title><rect x="1044.4" y="197" width="129.4" height="15.0" fill="rgb(206,8,1)" rx="2" ry="2" />
<text  x="1047.39" y="207.5" >indexbytebody</text>
</g>
<g >
<title>runtime.(*scavengerState).init.func2 (12 samples, 0.37%)</title><rect x="10.0" y="229" width="4.3" height="15.0" fill="rgb(233,131,31)" rx="2" ry="2" />
<text  x="13.00" y="239.5" ></text>
</g>
<g >
<title>runtime.memmove (9 samples, 0.27%)</title><rect x="761.4" y="197" width="3.3" height="15.0" fill="rgb(232,127,30)" rx="2" ry="2" />
<text  x="764.43" y="207.5" ></text>
</g>
<g >
<title>runtime.markrootSpans (1 samples, 0.03%)</title><rect x="72.6" y="181" width="0.3" height="15.0" fill="rgb(211,29,6)" rx="2" ry="2" />
<text  x="75.56" y="191.5" ></text>
</g>
<g >
<title>runtime.memmove (136 samples, 4.14%)</title><rect x="840.5" y="213" width="48.9" height="15.0" fill="rgb(232,127,30)" rx="2" ry="2" />
<text  x="843.53" y="223.5" >runt..</text>
</g>
<g >
<title>strings.Index (78 samples, 2.38%)</title><rect x="1015.6" y="213" width="28.1" height="15.0" fill="rgb(234,137,32)" rx="2" ry="2" />
<text  x="1018.62" y="223.5" >s..</text>
</g>
<g >
<title>strings.Count (74 samples, 2.25%)</title><rect x="989.0" y="213" width="26.6" height="15.0" fill="rgb(224,91,21)" rx="2" ry="2" />
<text  x="992.02" y="223.5" >s..</text>
</g>
<g >
<title>runtime.tgkill (1 samples, 0.03%)</title><rect x="17.2" y="133" width="0.4" height="15.0" fill="rgb(249,206,49)" rx="2" ry="2" />
<text  x="20.19" y="143.5" ></text>
</g>
<g >
<title>runtime.gcDrainMarkWorkerIdle (4 samples, 0.12%)</title><rect x="74.0" y="229" width="1.4" height="15.0" fill="rgb(218,61,14)" rx="2" ry="2" />
<text  x="77.00" y="239.5" ></text>
</g>
<g >
<title>runtime.park_m (9 samples, 0.27%)</title><rect x="1186.0" y="245" width="3.3" height="15.0" fill="rgb(233,132,31)" rx="2" ry="2" />
<text  x="1189.05" y="255.5" ></text>
</g>
<g >
<title>runtime.gcBgMarkWorker (170 samples, 5.18%)</title><rect x="14.3" y="261" width="61.1" height="15.0" fill="rgb(235,140,33)" rx="2" ry="2" />
<text  x="17.31" y="271.5" >runtim..</text>
</g>
<g >
<title>runtime.memmove (158 samples, 4.81%)</title><rect x="764.7" y="213" width="56.8" height="15.0" fill="rgb(232,127,30)" rx="2" ry="2" />
<text  x="767.67" y="223.5" >runtim..</text>
</g>
<g >
<title>runtime.futexsleep (3 samples, 0.09%)</title><rect x="1187.1" y="165" width="1.1" height="15.0" fill="rgb(218,63,15)" rx="2" ry="2" />
<text  x="1190.12" y="175.5" ></text>
</g>
<g >
<title>runtime/internal/syscall.Syscall6 (1 samples, 0.03%)</title><rect x="1188.9" y="165" width="0.4" height="15.0" fill="rgb(210,24,5)" rx="2" ry="2" />
<text  x="1191.92" y="175.5" ></text>
</g>
<g >
<title>runtime.systemstack (170 samples, 5.18%)</title><rect x="14.3" y="245" width="61.1" height="15.0" fill="rgb(206,6,1)" rx="2" ry="2" />
<text  x="17.31" y="255.5" >runtim..</text>
</g>
<g >
<title>runtime.slicebytetostring (136 samples, 4.14%)</title><rect x="840.5" y="229" width="48.9" height="15.0" fill="rgb(252,219,52)" rx="2" ry="2" />
<text  x="843.53" y="239.5" >runt..</text>
</g>
<g >
<title>runtime.read (1 samples, 0.03%)</title><rect x="1188.2" y="181" width="0.4" height="15.0" fill="rgb(217,59,14)" rx="2" ry="2" />
<text  x="1191.20" y="191.5" ></text>
</g>
<g >
<title>runtime.scanobject (2 samples, 0.06%)</title><rect x="72.9" y="197" width="0.7" height="15.0" fill="rgb(233,131,31)" rx="2" ry="2" />
<text  x="75.92" y="207.5" ></text>
</g>
<g >
<title>main.ParseTemp (487 samples, 14.84%)</title><rect x="584.5" y="229" width="175.1" height="15.0" fill="rgb(248,201,48)" rx="2" ry="2" />
<text  x="587.54" y="239.5" >main.ParseTemp</text>
</g>
<g >
<title>runtime.suspendG (152 samples, 4.63%)</title><rect x="17.6" y="165" width="54.6" height="15.0" fill="rgb(246,191,45)" rx="2" ry="2" />
<text  x="20.55" y="175.5" >runti..</text>
</g>
<g >
<title>runtime.injectglist (1 samples, 0.03%)</title><rect x="1186.4" y="117" width="0.4" height="15.0" fill="rgb(230,118,28)" rx="2" ry="2" />
<text  x="1189.40" y="127.5" ></text>
</g>
<g >
<title>runtime.futex (1 samples, 0.03%)</title><rect x="1186.4" y="37" width="0.4" height="15.0" fill="rgb(237,150,35)" rx="2" ry="2" />
<text  x="1189.40" y="47.5" ></text>
</g>
<g >
<title>syscall.read (52 samples, 1.58%)</title><rect x="821.5" y="197" width="18.7" height="15.0" fill="rgb(226,96,23)" rx="2" ry="2" />
<text  x="824.47" y="207.5" ></text>
</g>
</g>
</svg>
